<!-- Generator: Adobe Illustrator 23.0.3, SVG Export Plug-In  -->
<svg version="1.1" xmlns="http://www.w3.org/2000/svg" xmlns:xlink="http://www.w3.org/1999/xlink" x="0px" y="0px"
	 width="371.06px" height="524.92px" viewBox="0 0 371.06 524.92" style="enable-background:new 0 0 371.06 524.92;"
	 xml:space="preserve">
<style type="text/css">
	.st0{fill:#FFFFFF;}
</style>
<defs>
</defs>
<g>
	<path class="st0" d="M332.32,367.12c1.76-2.9,3.53-5.88,2.13-9.74c-0.9-2.47-0.95-5.24-1.35-7.89c-0.34-2.27-0.64-4.55-1.01-7.22
		c3.85,3.33,7.35,6.35,10.84,9.38c9.82,8.52,19.36,17.33,28.14,26.95 M285.31,411.82c-13.42,11.15-27.31,21.65-41.88,31.26
		c-11.32,7.47-22.87,14.53-35.41,19.8c-1.63,0.69-3.25,1.42-4.87,2.13c0.07,0.14,0.14,0.28,0.21,0.43
		c17.55-5.7,33.3-14.98,48.6-25.06 M0,524.92C0,349.95,0,174.97,0,0c123.69,0,247.37,0,371.06,0c0,125.87,0,251.74,0,377.62
		c-1.56-1.67-3.1-3.36-4.68-5.01c-10.65-11.15-21.8-21.74-34.07-31.12c-0.26-0.2-0.44-0.6-0.49-0.94
		c-0.92-6.65-1.83-13.29-2.71-19.94c-0.05-0.35,0.2-0.77,0.37-1.13c0.49-1.06,1.23-2.05,1.48-3.16c0.5-2.23,0.57-4.57,1.12-6.78
		c0.87-3.5,1.99-6.94,3.01-10.41c0.18,0.03,0.37,0.07,0.55,0.1c0.15,0.46,0.32,0.91,0.44,1.37c0.35,1.31,0.51,2.69,1.05,3.91
		c0.73,1.61,1.89,1.59,2.69-0.01c0.59-1.16,1.12-2.4,1.37-3.66c1.61-8.29,2.01-16.68,1.9-25.1c-0.02-1.1-0.16-2.2-0.24-3.31
		c0.23-0.05,0.47-0.09,0.7-0.14c0.32,1.51,0.54,3.06,1,4.53c0.41,1.3,0.98,2.58,1.68,3.74c0.44,0.73,1.27,0.7,1.68-0.18
		c0.76-1.62,1.67-3.23,2.11-4.94c1.94-7.58,2.35-15.31,1.74-23.08c-0.61-7.83-1.49-15.63-2.23-23.44c-0.04-0.39,0.09-0.83,0.25-1.21
		c0.61-1.51,1.59-2.94,1.83-4.5c0.98-6.13,2.1-12.28,2.48-18.46c0.53-8.62-0.31-17.24-1.61-25.78c-2.47-16.15-7.1-31.71-13.17-46.86
		c-4.52-11.28-10.1-21.92-18.47-30.9c-0.52-0.56-1.1-1.07-1.79-1.74c-0.04,0.42-0.1,0.55-0.05,0.61c0.28,0.4,0.57,0.8,0.87,1.19
		c4.54,5.78,8.45,11.94,11.44,18.67c4.98,11.21,8.63,22.87,11.72,34.72c4.28,16.43,7.46,33.02,6.99,50.1
		c-0.14,5.31-0.89,10.6-1.37,15.9c-0.19,0-0.37,0.01-0.56,0.01c-1.38-4.9-2.75-9.79-4.13-14.69c-0.24,0.05-0.48,0.11-0.73,0.16
		c2.4,10.81,3.69,21.74,4.24,32.77c0.55,11.12,0.17,22.18-1.33,32.94c-1.36-0.52-2.57-0.98-3.77-1.44
		c-1.63,9.84-3.19,19.27-4.8,28.96c-0.84-0.77-1.4-1.28-2.29-2.1c-1.36,1.84-2.86,3.62-4.07,5.58c-1.23,2.01-2.17,4.19-3.4,6.63
		c-0.48-4.52-1-8.67-1.35-12.84c-0.38-4.56-0.64-9.13-0.86-13.71c-0.02-0.44,0.53-1.11,0.99-1.35c4.3-2.26,7.51-5.53,9.68-9.89
		c2.61-5.24,4.01-10.85,5.08-16.54c1.28-6.77,2.09-13.61,0.86-20.5c-0.08-0.46-0.4-1.31-0.43-1.3c-1.24,0.31-0.93-0.76-1.11-1.27
		c-1.53-4.31-3.01-8.64-4.51-12.96c-0.16-0.46-0.47-0.95-0.41-1.39c0.39-3.04-0.77-6.24,1.48-9.11c1.06-1.35,1.43-3.29,1.9-5.02
		c3.27-12.03,1.75-23.78-2.14-35.38c-0.16-0.46-0.37-0.91-0.58-1.35c-0.2-0.44-0.43-0.86-0.65-1.29
		c3.91,14.32,4.52,28.57,0.65,42.87c-0.14,0-0.28,0-0.42,0c0.09-1.12,0.17-2.24,0.26-3.36c-0.18-0.01-0.37-0.03-0.55-0.04
		c-0.24,3.79-0.48,7.59-0.73,11.44c-0.97-1.47-1.78-3.06-2.92-4.33c-1.32-1.47-1.49-3.13-1.71-4.93c-1.02-8.28-2.15-16.54-3.25-24.8
		c-0.24-1.79-0.93-3.17-3.58-3.05c3.76-3.6,7.14-6.84,10.51-10.07c-1.24,0.48-2.42,1.07-3.4,1.89c-3.38,2.85-6.85,5.62-10,8.72
		c-6.36,6.25-13.08,12.26-16.54,21.03c-0.14-0.4-0.26-0.68-0.34-0.97c-4.85-18.22-11.16-35.94-18.29-53.37
		c-1.82-4.44-3.83-8.81-5.76-13.21c-0.39-0.88-0.87-1.7-2.25-0.77c11.12,26,21.95,52.09,28.83,79.62c-0.31-2.28-0.77-4.51-1.23-6.74
		c-0.08-0.37-0.3-0.84-0.16-1.11c1.34-2.66,2.49-5.46,4.17-7.89c2.23-3.22,4.86-6.18,7.39-9.18c1.63-1.94,3.41-3.75,5.33-5.85
		c4.46,17.53,7.63,34.82,6.57,52.68c0.28,0.01,0.55,0.01,0.83,0.02c0.45-3.67,1.07-7.34,1.29-11.02c0.22-3.78,0.05-7.58,0.05-11.6
		c0.45,0.28,0.56,0.31,0.61,0.39c0.27,0.41,0.53,0.83,0.78,1.25c3.72,6.34,5.88,13.26,7.33,20.41c0.88,4.34,1.4,8.7,0.31,13.12
		c-1.91,7.76-4.33,15.35-8.07,22.44c-2,3.79-5.32,6.29-9.02,8.33c-2.65,1.46-5.25,0.9-7.92,0.21c-0.46-0.12-1.04,0.25-1.58,0.4
		c0.72,2.49,2.49,3.62,4.5,4.24c1.88,0.57,3.89,0.72,5.53,1c0.51,7.06,0.8,14.42,1.62,21.72c2.04,18.24,5.23,36.3,8.59,54.33
		c0.35,1.86,0.11,4.25-0.81,5.83c-2.19,3.75-4.78,7.32-7.54,10.68 M240.4,286.52c1.15,1.76,2.3,3.51,3.46,5.27
		c0.13-0.08,0.27-0.17,0.4-0.25c-1.9-3.11-3.63-6.33-5.74-9.3c-7.11-10.03-16.07-18.25-25.69-25.81
		c-6.91-5.43-14.39-9.91-22.45-13.4c-0.85-0.37-1.79-0.53-2.69-0.78c-0.07,0.19-0.14,0.38-0.2,0.58c0.39,0.26,0.76,0.54,1.16,0.76
		c2.25,1.23,4.51,2.45,6.77,3.67c11.48,6.19,21.63,14.18,31.08,23.09c5.21,4.92,10.15,10.1,13.97,16.23
		c-1.67-0.31-0.66,0.93-0.61,1.28c0.75,5.15,1.26,10.3,0.63,15.49c-0.25,2.03-0.76,4.03-1.15,6.05c0.82-2.15,1.46-4.35,1.79-6.6
		C241.92,297.33,241.41,291.91,240.4,286.52z M225.26,284.83c0.07-0.19,0.13-0.37,0.2-0.56c-1.03-0.49-2.02-1.11-3.1-1.43
		c-3.76-1.13-7.54-2.21-11.34-3.19c-6.45-1.68-12.96-3.08-19.66-3.27c-8.36-0.23-16.54,1.18-24.64,3.02
		c-9.74,2.21-19.42,4.64-29.15,6.86c-7.87,1.79-15.8,2.31-23.78,0.57c-0.51-0.11-1.06-0.01-1.6-0.01c-0.02,0.16-0.05,0.32-0.07,0.48
		c3.09,1.78,6.18,3.56,9.19,5.29c-0.37,1.21-0.9,2.31-0.98,3.44c-0.1,1.32,0.24,2.67,0.33,4.02c0.16,2.55,1.7,4.16,4.19,4.57
		c0.6,0.1,1.3,0.7,1.61,1.26c3.66,6.64,7.25,13.32,10.85,19.99c0.26,0.48,0.42,1.01,0.71,1.47c0.55,0.9,0.97,1.97,1.75,2.6
		c3.41,2.74,7.54,3.85,11.76,3.97c5.05,0.14,10.15-0.04,15.16-0.63c9.28-1.09,18.18-3.69,26.41-8.25
		c10.83-6.01,20.8-13.1,28.39-23.09c2.7-3.56,5.29-7.21,7.89-10.84c0.42-0.59,0.64-1.32,0.95-1.99c-0.19-0.16-0.38-0.32-0.57-0.48
		c-0.3,0.47-0.57,0.97-0.91,1.41c-1.4,1.81-2.74,3.69-4.27,5.38c-0.63,0.7-1.65,1.32-2.56,1.45c-5.82,0.88-11.65,1.83-17.51,2.34
		c-14.83,1.29-29.68,2.43-44.53,3.48c-7.29,0.52-14.6,0.76-21.91,1.02c-4.04,0.14-8.05-0.27-11.87-1.73
		c-0.52-0.2-1.06-0.63-1.33-1.11c-0.48-0.84-0.85-1.76-1.1-2.69c-0.48-1.79-0.85-3.6-1.21-5.13c6.15-0.78,11.85-1.51,17.6-2.24
		c0.27,2.45,0.53,4.88,0.82,7.53c0-2.77,0-5.32,0-7.9c5.48-1.42,11.01-2.86,16.66-4.33c0.42,2.36,0.84,4.7,1.25,7.04
		c0.11-0.02,0.22-0.03,0.33-0.05c-0.29-2.42-0.58-4.83-0.88-7.39c0.74-0.21,1.45-0.47,2.19-0.6c1.7-0.32,3.41-0.56,5.11-0.86
		c2.63-0.47,5.26-0.96,7.88-1.47c1.09-0.21,1.62,0.07,1.65,1.29c0.03,1.63,0.22,3.27,0.36,4.9c0.09,1.08,0.19,2.15,0.29,3.23
		c0.07-0.01,0.13-0.02,0.2-0.03c0-3.19,0-6.39,0-9.68c2.41-0.19,4.73-0.41,7.07-0.56c1.47-0.09,2.95-0.1,4.42-0.12
		c3.37-0.06,3.37-0.06,4.3,3.12c0-0.93,0-1.94,0-3c0.25-0.04,0.46-0.11,0.67-0.1c5.07,0.23,10.15,0.44,15.22,0.75
		c0.41,0.03,0.99,0.73,1.11,1.21c0.31,1.19,0.41,2.44,0.57,3.67c0.28,2.06,0.54,4.13,0.81,6.19c0.38-0.78,0.51-1.57,0.47-2.36
		c-0.1-2.4-0.13-4.81-0.46-7.18c-0.21-1.46,0.4-1.67,1.48-1.49c1.94,0.31,3.85,0.76,5.79,1.07
		C220.05,284.09,222.66,284.44,225.26,284.83z M232.39,380.67c-0.13-0.09-0.26-0.18-0.38-0.27c-0.46,0.49-0.92,0.96-1.37,1.46
		c-1.93,2.15-3.75,4.42-5.82,6.44c-6.8,6.66-15,11.07-23.88,14.23c-7.29,2.6-14.72,4.47-22.59,3.72
		c-9.92-0.94-18.89-4.36-26.82-10.39c-11.62-8.85-18.65-20.83-22.85-34.54c-1.54-5.03-2.23-10.32-3.2-15.52
		c-2.08-11.12-6.29-21.45-11.68-31.33c-1.66-3.04-3.45-6.01-5.18-9.01c-0.13,0.07-0.25,0.14-0.38,0.2c1.17,2.37,2.42,4.71,3.5,7.13
		c3.98,8.88,8.6,17.51,10.46,27.2c0.78,4.06,1.48,8.13,2.17,12.2c1.6,9.43,4.41,18.46,8.87,26.95c1.23,2.34,2.59,4.6,3.84,6.8
		c-3.61,2.01-7.14,3.86-10.55,5.91c-17.7,10.64-34.15,23.01-50.07,36.11c-11.8,9.71-22.92,20.1-32.27,32.25
		c-0.87,1.13-1.74,2.26-2.61,3.39c0.6-0.13,0.92-0.47,1.22-0.83c7.2-8.61,14.99-16.63,23.55-23.9
		c20.57-17.47,42.6-32.93,65.36-47.38c2.14-1.36,4.4-2.54,6.62-3.81c0.26,0.31,0.37,0.43,0.47,0.57
		c6.4,8.66,14.44,15.28,24.33,19.64c0.54,0.24,0.98,1.1,1.13,1.75c2.8,11.67,5.54,23.36,8.32,35.04c0.36,1.52,0.9,3,1.36,4.49
		c0.11-0.03,0.21-0.05,0.32-0.08c-1-4.78-1.99-9.56-2.99-14.34c9.58,12.77,20.06,24.6,31.35,35.74c-0.18-0.53-0.5-0.95-0.83-1.36
		c-8.67-10.75-17.35-21.5-26.02-32.25c-3.38-4.19-6.76-8.36-6.98-14.14c-0.05-1.35-0.48-2.68-0.73-4.03
		c-0.6-3.15-1.19-6.29-1.81-9.59c0.63,0.19,1.04,0.3,1.44,0.44c9.71,3.32,19.39,3.22,29.07-0.18c14.63-5.14,26.75-13.49,34.77-27.1
		C231.84,381.76,232.11,381.21,232.39,380.67z M92.04,143.72c-0.13-0.02-0.26-0.03-0.4-0.05c0.45-4.07,0.89-8.13,1.35-12.3
		c-0.16,0.25-0.32,0.41-0.38,0.61c-0.27,0.83-0.55,1.66-0.76,2.5c-1.76,7.39-1.71,14.94-2.07,22.46c-0.07,1.54-0.64,3.06-0.98,4.58
		c-0.28,1.24-0.78,2.48-0.82,3.73c-0.07,2.12,0.19,4.25,0.22,6.38c0.05,3.3,0.01,6.6,0.01,9.82c-0.09-0.13-0.29-0.42-0.48-0.73
		c-2.87-4.71-5.77-9.41-8.57-14.16c-0.45-0.77-0.64-1.81-0.62-2.72c0.11-4.69,0.4-9.37,0.45-14.06c0.01-1.35-0.28-2.58-1.57-3.81
		c-2.3-2.2-8.52-2.78-11.26-0.97c-0.51,0.34-0.92,0.84-1.37,1.27c5.38-0.9,8.1-0.19,11.86,3.22c0.25,0.23,0.79,0.15,1.48,0.26
		c-0.76,4.13-1.59,8.23-2.22,12.37c-0.26,1.74-0.28,3.57-0.04,5.3c0.16,1.13,0.9,2.34,2.13,1.35c3.73,6.89,7.47,13.67,11.05,20.54
		c0.62,1.2,0.6,2.73,0.92,4.35c-1.03-0.32-1.63-0.51-2.23-0.7c-0.03,0.06-0.06,0.12-0.1,0.18c0.49,0.41,0.98,0.83,1.41,1.2
		c-3.68-0.92-7.37-1.85-11.07-2.77c-0.06,0.2-0.13,0.4-0.19,0.59c1.77,0.72,3.53,1.44,5.3,2.16c-0.02,0.09-0.04,0.18-0.07,0.26
		c-1.73-0.21-3.46-0.41-5.18-0.62c0.2,0.53,0.5,0.81,0.86,0.96c3.44,1.39,6.86,2.83,10.35,4.09c1.17,0.42,1.53,1.08,1.75,2.19
		c0.83,4.11,1.73,8.21,2.69,12.3c0.3,1.27,0.89,2.47,1.35,3.7c0.16-0.04,0.32-0.09,0.49-0.13c-1.47-5.87-2.09-11.83-2.24-18.03
		c1.19,0.41,2.13,0.82,3.11,1.03c0.77,0.17,1.68-0.13,2.36,0.16c2.47,1.08,4.81,2.28,7.5,3.02c4.54,1.25,8.84,3.4,13.2,5.26
		c2.64,1.13,5.21,2.42,7.82,3.64c0.14-0.09,0.27-0.19,0.41-0.28c-0.29-0.49-0.47-1.11-0.88-1.44c-0.94-0.74-2.07-1.24-2.98-2
		c-3.51-2.92-6.97-5.91-10.46-8.86c-0.22-0.19-0.56-0.24-1.24-0.51c2.8,2.56,5.25,4.81,7.7,7.06c-0.1,0.13-0.2,0.27-0.3,0.4
		c-4.04-3.03-7.92-6.33-12.76-8.12c1.09,0.82,2.19,1.65,3.28,2.47c-0.03,0.05-0.07,0.09-0.1,0.14c-2.39-1.29-4.79-2.59-7.18-3.88
		c-0.07,0.11-0.13,0.23-0.2,0.34c1.71,1.24,3.42,2.47,5.12,3.71c-0.08,0.12-0.16,0.24-0.24,0.36c-3.03-1.63-6.05-3.26-9.08-4.9
		c-0.08,0.15-0.17,0.29-0.25,0.44c0.92,0.59,1.84,1.18,2.76,1.77c-2.07-0.71-3.93-1.8-5.88-2.71c-1.08-0.5-1.39-1.23-1.41-2.29
		c-0.05-2.35-0.12-4.69-0.19-7.04c-0.14-4.69-0.43-9.39-0.41-14.08c0.04-7.55,0.27-15.1,0.47-22.65c0.04-1.36,0.39-2.7,0.52-4.06
		c0.64-7.04,1.25-14.08,1.84-20.7C93.3,130.89,93.64,137.51,92.04,143.72z M197.32,167.32c-5.57,0.76-10.24,2.95-15.07,4.89
		c2.95-2.2,5.9-4.4,8.85-6.6c-0.08-0.12-0.17-0.25-0.25-0.37c-7.18,2.72-13.42,6.97-19.26,11.98c2.42-2.45,4.85-4.91,7.27-7.36
		c-0.14-0.14-0.27-0.29-0.41-0.43c-3.82,3.19-7.65,6.38-11.47,9.57c-0.05-0.04-0.11-0.08-0.16-0.12c2.33-3.13,4.67-6.25,7-9.38
		c-0.7,0.14-1.21,0.45-1.59,0.88c-4.35,4.97-8.73,9.91-12.98,14.96c-0.84,1-1.28,2.41-1.64,3.7c-0.17,0.59,0.31,1.36,0.49,2.05
		c-0.02-0.19-0.04-0.38-0.05-0.57c1.12-0.86,2.23-1.75,3.36-2.59c6.68-4.96,13.99-8.69,21.95-11.12c5.25-1.6,10.65-2.26,16.01-1.02
		c11.21,2.6,21.14,7.82,29.76,15.48c1.86,1.65,3.66,3.35,5.49,5.03c0.05-0.02,0.09-0.05,0.14-0.07c-2.03-2.56-4.07-5.12-6.1-7.68
		c0.06-0.11,0.12-0.21,0.18-0.32c2.93,1.86,5.87,3.73,8.59,5.46c-0.14-0.16-0.46-0.57-0.81-0.95c-2.63-2.82-6.11-4.32-9.39-6.17
		c-2.66-1.5-5.07-3.42-7.6-5.15c0.11-0.23,0.22-0.47,0.34-0.7c4.07,1.41,8.13,2.83,11.83,4.12c0.05,0.04-0.23-0.26-0.55-0.5
		c-4.42-3.26-9.51-4.76-14.85-5.61c-0.68-0.11-1.33-0.37-1.99-0.56c0.05-0.21,0.11-0.42,0.16-0.64c4.46,0.87,8.91,1.74,13.58,2.65
		c-1.06-0.49-1.94-1.08-2.9-1.3c-4.67-1.06-9.37-1.99-14.05-3.03c-1.32-0.29-2.59-0.78-3.88-1.18c0.04-0.18,0.09-0.36,0.13-0.54
		c3.97,0.25,7.94,0.5,12.42,0.79c-1.06-0.46-1.66-0.81-2.31-0.99c-5.3-1.46-10.68-2.11-16.19-1.79c-1.06,0.06-2.13-0.11-3.19-0.17
		c-0.01-0.21-0.03-0.42-0.04-0.63c4.43-0.82,8.86-1.64,13.3-2.46c-8.75-1.03-17.09,0.72-25.26,3.7c-0.05-0.15-0.1-0.29-0.14-0.44
		C189.67,170.55,193.31,169.01,197.32,167.32z M123.48,356.22c0.05-0.04,0.1-0.07,0.15-0.11c-0.23-0.6-0.41-1.23-0.71-1.8
		c-4.05-7.85-8.06-15.73-12.21-23.53c-3.05-5.73-6.2-11.41-9.46-17.03c-2.87-4.95-6.03-9.72-8.9-14.67
		c-1.91-3.3-3.59-6.74-5.28-10.17c-5.65-11.49-8.28-23.63-7.61-36.45c0.43-8.26,2.97-15.71,8.5-22.02c1.91-2.17,3.81-4.36,5.62-6.61
		c0.74-0.92,1.36-1.99,1.83-3.08c0.45-1.05-0.12-1.6-1.22-1.26c-0.43,0.13-0.83,0.49-1.15,0.83c-1.79,1.91-3.52,3.89-5.33,5.78
		c-4.13,4.31-7.5,9.07-9.38,14.81c-3.23,9.9-2.78,19.93-1.04,29.97c2.09,12.02,7.65,22.57,14.44,32.52c2.05,3.01,4.79,5.58,6.65,8.7
		c6.4,10.74,12.57,21.61,18.77,32.46C119.36,348.41,121.38,352.33,123.48,356.22z M67.11,104.15c-0.1-0.03-0.21-0.06-0.31-0.09
		c0.17-0.62,0.33-1.24,0.52-1.86c1-3.29,1.99-6.58,3.03-9.86c0.46-1.45,0.03-2.38-1.4-2.93c-1.41-0.54-6.37,0.8-7.06,2.15
		c-0.24,0.47,0.06,1.75,0.42,1.89c1.42,0.56,1.04,1.53,0.88,2.52c-0.61,3.77-1.16,7.55-1.85,11.3c-1.07,5.84-2.06,11.71-3.42,17.49
		c-1.35,5.72-2.5,11.42-1.77,17.3c0.27,2.14,0.89,4.26,1.6,6.3c0.43,1.23,1.11,2.91,2.66,2.73c1.8-0.21,2.14-2.11,2.67-3.6
		c0.07-0.2,0.13-0.45,0.07-0.64c-0.08-0.29-0.24-0.57-0.4-0.83c-0.44-0.75-1.15-1.44-1.3-2.24c-0.32-1.76-0.54-3.58-0.5-5.36
		c0.24-12.26,2.57-24.05,8.16-35.08c0.28-0.55,0.42-1.18,0.62-1.77c-0.14-0.06-0.29-0.12-0.43-0.18
		C68.56,102.31,67.84,103.23,67.11,104.15z M330.26,102.37c-0.14-3.47-1.75-6.34-4.01-8.83c-6.29-6.91-13.47-12.74-21.58-17.4
		c-0.93-0.54-1.33-1-1.13-2.14c0.35-2.06-0.31-3.98-1.25-5.82c-2.3-4.51-5.59-8.24-9.46-11.39c-12.9-10.49-27.49-17.88-43.25-23.03
		c-7.25-2.37-14.77-3.39-22.36-3.85c-2.23-0.14-4.48-0.02-6.72-0.02c1.21,0.36,2.45,0.44,3.67,0.63c6.51,1.04,13.17,1.56,19.49,3.29
		c15.98,4.36,30.24,12.38,43.63,21.99c5.04,3.62,9.61,7.76,12.89,13.1c0.8,1.3,1.15,2.91,1.57,4.42c0.21,0.76,0.06,1.47-1.06,1.6
		c-1.38,0.17-1.63,1.18-0.86,2.11c0.67,0.81,1.7,1.35,2.62,1.94c4.94,3.22,10.02,6.24,14.81,9.67
		C322.43,92.35,327.9,95.88,330.26,102.37z M112.56,44.14c0.3,0.25,0.39,0.38,0.45,0.37c0.53-0.12,1.05-0.26,1.57-0.41
		c17.94-5.16,36.33-7.35,54.9-8.3c5.18-0.26,10.37-0.41,15.55-0.44c5.9-0.04,11.8-0.04,17.69,0.21c6.81,0.29,13.62,0.73,20.28,2.41
		c1.71,0.43,1.76-1.15,2.02-2.16c0.28-1.1-0.46-1.82-1.47-1.98c-2.01-0.32-4.06-0.44-6.07-0.74c-10.31-1.5-20.67-1.44-31.05-1.09
		c-10.97,0.37-21.88,1.29-32.76,2.7c-13.29,1.73-26.37,4.36-39.1,8.63C113.93,43.56,113.32,43.84,112.56,44.14z M113.69,49.26
		c-2.31,0.81-4.62,1.45-6.79,2.42c-8.02,3.6-15.21,8.56-22.19,13.83c-9.23,6.98-17.79,14.65-24.68,24.03c-0.34,0.46-0.59,1-0.88,1.5
		c0.61,0,0.94-0.18,1.17-0.45c7.11-8.03,15.38-14.73,24.3-20.58c10.53-6.91,20.99-14.02,33.44-17.24c1.21-0.31,1.81-2.36,0.97-3.06
		c-0.84-0.69-1.7-1.41-2.67-1.86c-1.17-0.55-2.41-1.28-3.99-0.42C112.86,48.1,113.26,48.65,113.69,49.26z M222.12,313.97
		c0.14,0.16,0.29,0.31,0.43,0.47c-2.48,2.14-4.93,4.32-7.45,6.41c-6.93,5.73-14.83,9.82-23.14,13.07
		c-14.07,5.5-28.73,6.56-43.64,5.16c-4.33-0.41-8.5-1.7-11.18-5.38c-1.74-2.39-2.83-5.25-4.24-7.89c-0.26-0.48-0.65-0.9-0.98-1.35
		c-0.18,0.09-0.36,0.18-0.54,0.26c0.1,0.66,0.09,1.36,0.32,1.96c0.73,1.88,1.48,3.76,2.35,5.57c1.94,4.06,5.1,6.88,9.45,7.97
		c3.57,0.89,7.25,1.61,10.92,1.84c8.58,0.54,17.1-0.23,25.56-1.83c13.62-2.58,25.42-8.7,35.57-18.06
		C218.15,319.78,220.38,317.06,222.12,313.97z M149.27,126.65c0.28-0.21,0.57-0.4,0.84-0.62c4.33-3.5,8.46-7.27,13.01-10.45
		c11.37-7.92,23.93-13.45,37.07-17.75c9.75-3.19,19.68-5.38,30-5.31c2.45,0.02,4.9,0.31,7.35,0.37c0.44,0.01,0.9-0.48,1.35-0.74
		c-0.34-0.4-0.64-0.83-1.02-1.17c-0.18-0.16-0.52-0.13-0.79-0.17c-8.58-1.39-17.11-0.88-25.54,0.94
		c-14.32,3.08-27.63,8.77-40.15,16.31C163.05,113.09,155.51,119.07,149.27,126.65z M271.39,220.61c0.17-0.14,0.33-0.28,0.5-0.43
		c-1.83-2.11-3.52-4.37-5.53-6.3c-4.79-4.6-10.68-7.32-16.92-9.34c-9.36-3.03-18.73-3.65-28.04,0.19c-3.78,1.56-7.27,3.59-9.44,7.25
		c-0.31,0.52-0.08,1.35-0.11,2.04c0.6-0.23,1.34-0.3,1.77-0.71c5.47-5.25,12.17-7.78,19.55-8.07c9.09-0.36,17.77,1.78,26,5.64
		C264.02,213.14,267.96,216.55,271.39,220.61z M91.81,124.01c0.08,0.17,0.17,0.33,0.25,0.5c0.48-0.18,0.95-0.36,1.43-0.55
		c1.92-0.77,3.78-1.76,5.77-2.26c9.72-2.47,19.47-4.81,29.2-7.21c3.86-0.95,7.7-1.98,11.56-2.94c1.26-0.31,1.73-1.31,1.56-2.31
		c-0.07-0.41-1.33-0.65-2.08-0.9c-0.22-0.07-0.53,0.07-0.79,0.14c-5.95,1.57-11.96,2.96-17.84,4.76
		c-7.91,2.42-15.75,5.09-23.57,7.82C95.36,121.73,93.63,123.01,91.81,124.01z M149.84,264.08c-0.02-0.21-0.04-0.42-0.07-0.63
		c-0.43,0-0.86-0.04-1.28,0.01c-6.29,0.71-12.55,1.19-18.79-0.64c-4.49-1.32-9.16-2.16-13.16-4.78c-4.13-2.71-4.76-7.21-1.74-11.16
		c0.22-0.28,0.16-0.77,0.24-1.16c-0.4-0.07-0.85-0.28-1.19-0.16c-0.44,0.15-0.89,0.48-1.16,0.86c-1.54,2.16-2.4,4.6-2,7.24
		c0.83,5.46,4.58,8.38,9.42,10.09c6.21,2.2,12.67,2.82,19.19,2.23C142.84,265.64,146.33,264.73,149.84,264.08z M308.06,297.48
		c0.66-3.62,1.4-7.23,1.95-10.86c1.57-10.49,1.87-21.07,1.99-31.66c0.01-0.64,0.23-1.35,0.58-1.9c0.77-1.23,1.9-2.28,2.49-3.58
		c2.63-5.79,3.17-11.89,2.07-18.09c-0.56-3.18-1.83-6.17-4.1-8.61c-0.66-0.71-1.41-1.21-2.55-0.26c2.62,4.34,3.86,9.12,4,14.13
		c0.14,4.92,0.34,9.9-2.39,14.39c-0.5-7.96-0.39-15.95-2.09-23.77c0.98,11.69,1.46,23.38,1.25,35.1
		C311.05,274.16,310.1,285.87,308.06,297.48z M233.72,101.62c-0.02-0.13-0.04-0.27-0.06-0.4c0.51-0.31,1.08-0.55,1.52-0.93
		c2.32-1.97,4.64-3.94,6.86-6.01c0.4-0.37,0.33-1.25,0.48-1.89c-0.67,0.18-1.44,0.19-1.98,0.56c-1.49,1-2.9,2.13-4.31,3.25
		c-2.64,2.1-5.28,4.22-7.88,6.38c-0.41,0.34-0.61,0.93-0.91,1.41c0.12,0.12,0.25,0.24,0.37,0.36c0.67-0.33,1.33-0.67,2.01-0.97
		c0.28-0.13,0.6-0.27,0.9-0.26c0.82,0.02,1.66,0.3,2.44,0.17c3.7-0.65,7.39-1.4,11.08-2.11c1.94-0.37,3.87-0.75,5.94-1.15
		c-4.3,10.33-5.25,15.13-3.82,17.76c0.52-2.4,0.74-5.22,1.75-7.72c1.84-4.57,3.27-9.54,7.69-12.08c-0.53-0.03-1.48-0.15-2.42-0.11
		c-0.6,0.03-1.21,0.26-1.79,0.46c-0.45,0.16-0.83,0.56-1.28,0.63C244.79,99.86,239.25,100.74,233.72,101.62z M111.17,242.65
		c0.1,0.14,0.2,0.29,0.3,0.43c1.1-0.51,2.29-0.89,3.29-1.56c7.65-5.2,12.38-12.49,14.73-21.32c0.46-1.72,0.16-3.67-0.03-5.49
		c-0.04-0.42-1.08-0.74-1.66-1.11c-0.26,0.5-0.78,1.01-0.75,1.49c0.22,3.4-0.95,6.45-2.27,9.45c-0.17,0.39-0.89,0.81-1.32,0.77
		c-3.42-0.32-6.81-0.95-10.23-1.09c-4.63-0.2-9.28-0.05-12.93-0.05c7.15,0.59,15.27,1.27,23.83,1.98
		C120.81,232.93,117.13,238.66,111.17,242.65z M111.14,222.27c1.35-0.08,2.46-0.01,3.51-0.23c2.78-0.57,5.15-1.78,6.2-4.67
		c0.8-2.2,0.24-3.44-2.04-4.09c-4.41-1.27-8.5-0.51-12.1,2.35c-2.38,1.89-1.97,4.69,0.87,5.84
		C108.77,221.94,110.11,222.04,111.14,222.27z M194.99,212.06c-5.27,1.15-10.55,2.31-15.82,3.46c0.02,0.09,0.04,0.18,0.06,0.26
		c10.54-1.99,21.07-3.98,31.61-5.97c-0.02-0.11-0.03-0.21-0.05-0.32c-4.33,0.66-8.66,1.33-12.36,1.9c1.13-1.06,2.84-2.28,4-3.9
		c0.62-0.87,0.75-2.63,0.3-3.62c-0.63-1.38-2.36-1.27-3.78-1.35c0.39,0.44,0.85,0.69,1.32,0.93c1.81,0.93,2.02,1.82,0.35,2.97
		c-1.54,1.05-3.32,1.87-5.11,2.36c-0.83,0.23-1.93-0.57-2.91-0.9c0.54-0.74,1.05-1.5,1.63-2.21c0.19-0.23,0.55-0.4,0.85-0.46
		c0.83-0.16,1.73-0.47,2.49-0.28c0.43,0.11,0.62,1.11,0.92,1.69c1.18-1.75,0.58-3.26-1.48-3.63c-2.34-0.42-5.82,1.42-6.56,3.66
		c-0.24,0.73-0.1,1.74,0.21,2.48C191.42,211,193.17,211.53,194.99,212.06z M142.24,106.75c0.24,2.53,0.67,4.63,0.6,6.72
		c-0.12,3.97-0.61,7.92-0.75,11.89c-0.04,1.16,0.41,2.45,1,3.48c0.72,1.26,1.47,1.1,2.3-0.14c0.41-0.61,1.05-1.06,1.51-1.64
		c0.4-0.51,1.08-1,0.2-1.76c-0.38-0.33-0.71-0.93-0.75-1.43c-0.27-3.35-0.28-6.73-0.74-10.04
		C145.27,111.33,144.41,108.9,142.24,106.75z M263.46,108.22c-2.85,0.75-13.41,9.95-14.62,12.6c3.88-3,7.66-5.93,11.57-8.95
		c-0.37,10.26,1.4,19.95,5.08,29.29c-2.32-9.09-3.47-18.32-3.14-27.7C262.41,111.71,261.83,109.74,263.46,108.22z M150.48,259.87
		c1.84-1.62,3.51-3.47,5.54-4.8c4.92-3.22,10.02-6.17,15-9.31c0.56-0.35,0.79-1.24,1.17-1.87c-0.6-0.19-1.28-0.66-1.79-0.52
		c-1.67,0.47-3.48,0.85-4.85,1.82c-3.51,2.47-6.91,5.13-10.18,7.93C153.24,254.93,151.46,257.14,150.48,259.87z M264.24,321.87
		c4.74-7.91,8.69-46.84,5.36-62.49C270.69,280.29,269.9,301.53,264.24,321.87z M175.82,240.18c0.46-1.87-0.66-3.1-1.86-4.23
		c-3.67-3.46-8.05-5.57-12.95-6.62c-1.64-0.35-3.32-0.56-4.98-0.83c3.57,1.62,7.33,2.72,10.61,4.63
		C169.91,235.03,172.72,237.74,175.82,240.18z M331.36,249.5c0-0.14,0.01-0.28,0.01-0.43c-0.62-0.13-1.24-0.36-1.86-0.37
		c-4.04-0.07-7.68,1.43-11.23,3.14c-0.95,0.46-2.6,0.88-1.87,2.51c0.85,1.89,2.19,0.53,3.16,0.08
		C323.43,252.61,326.91,249.95,331.36,249.5z M276.29,130.56c-0.12-0.12-0.24-0.23-0.36-0.35c-1.14,1.44-2.4,2.8-3.39,4.33
		c-1.54,2.36-2.97,4.81-4.29,7.3c-0.26,0.48,0.2,1.34,0.33,2.03c0.46-0.35,1.11-0.61,1.35-1.07c1.17-2.21,2.18-4.5,3.33-6.72
		C274.21,134.21,275.27,132.4,276.29,130.56z M114.05,279.29c2.37-2.59,5.79-12.9,4.63-14.22
		C117.12,269.85,115.57,274.62,114.05,279.29z M318.24,98.35c3.5,1.28,6.53,2.39,9.99,3.66c-0.31-0.69-0.39-1.34-0.73-1.52
		C324.74,99.03,321.81,98.17,318.24,98.35z M192.27,286.6c-0.18,0.01-0.35,0.03-0.53,0.04c0.2,3.48,0.4,6.96,0.53,9.25
		C192.27,293.59,192.27,290.1,192.27,286.6z"/>
	<path d="M324.86,375.87c2.76-3.36,5.35-6.93,7.54-10.68c0.92-1.58,1.16-3.97,0.81-5.83c-3.36-18.03-6.56-36.1-8.59-54.33
		c-0.82-7.3-1.11-14.66-1.62-21.72c-1.64-0.28-3.65-0.42-5.53-1c-2-0.61-3.78-1.75-4.5-4.24c0.54-0.15,1.12-0.52,1.58-0.4
		c2.67,0.69,5.27,1.25,7.92-0.21c3.71-2.05,7.02-4.54,9.02-8.33c3.73-7.09,6.16-14.67,8.07-22.44c1.09-4.43,0.57-8.79-0.31-13.12
		c-1.45-7.15-3.61-14.06-7.33-20.41c-0.25-0.42-0.51-0.84-0.78-1.25c-0.05-0.07-0.16-0.11-0.61-0.39c0,4.02,0.17,7.82-0.05,11.6
		c-0.22,3.69-0.84,7.35-1.29,11.02c-0.28-0.01-0.55-0.01-0.83-0.02c1.06-17.86-2.11-35.15-6.57-52.68c-1.92,2.1-3.7,3.92-5.33,5.85
		c-2.54,3-5.16,5.96-7.39,9.18c-1.68,2.43-2.84,5.23-4.17,7.89c-0.14,0.27,0.09,0.74,0.16,1.11c0.46,2.23,0.92,4.46,1.23,6.74
		c-6.88-27.53-17.72-53.62-28.83-79.62c1.37-0.93,1.86-0.11,2.25,0.77c1.94,4.4,3.94,8.76,5.76,13.21
		c7.14,17.43,13.45,35.15,18.29,53.37c0.08,0.29,0.2,0.57,0.34,0.97c3.46-8.77,10.19-14.78,16.54-21.03c3.15-3.1,6.62-5.87,10-8.72
		c0.98-0.82,2.16-1.41,3.4-1.89c-3.38,3.24-6.76,6.47-10.51,10.07c2.64-0.12,3.34,1.27,3.58,3.05c1.1,8.27,2.23,16.53,3.25,24.8
		c0.22,1.81,0.39,3.47,1.71,4.93c1.15,1.27,1.95,2.86,2.92,4.33c0.25-3.86,0.49-7.65,0.73-11.44c0.18,0.01,0.37,0.03,0.55,0.04
		c-0.09,1.12-0.17,2.24-0.26,3.36c0.14,0,0.28,0,0.42,0c3.87-14.3,3.26-28.55-0.65-42.87c0.22,0.43,0.45,0.85,0.65,1.29
		c0.21,0.44,0.43,0.89,0.58,1.35c3.89,11.6,5.4,23.36,2.14,35.38c-0.47,1.73-0.85,3.68-1.9,5.02c-2.25,2.86-1.09,6.07-1.48,9.11
		c-0.06,0.44,0.25,0.93,0.41,1.39c1.49,4.32,2.98,8.65,4.51,12.96c0.18,0.51-0.12,1.58,1.11,1.27c0.04-0.01,0.35,0.83,0.43,1.3
		c1.23,6.89,0.42,13.73-0.86,20.5c-1.08,5.68-2.47,11.29-5.08,16.54c-2.18,4.37-5.38,7.63-9.68,9.89c-0.46,0.24-1.01,0.9-0.99,1.35
		c0.22,4.57,0.48,9.15,0.86,13.71c0.35,4.17,0.87,8.32,1.35,12.84c1.23-2.44,2.17-4.62,3.4-6.63c1.2-1.96,2.71-3.74,4.07-5.58
		c0.9,0.82,1.45,1.33,2.29,2.1c1.61-9.69,3.17-19.11,4.8-28.96c1.2,0.46,2.41,0.92,3.77,1.44c1.5-10.76,1.88-21.82,1.33-32.94
		c-0.54-11.03-1.84-21.97-4.24-32.77c0.24-0.05,0.48-0.11,0.73-0.16c1.38,4.9,2.75,9.79,4.13,14.69c0.19,0,0.37-0.01,0.56-0.01
		c0.47-5.3,1.22-10.59,1.37-15.9c0.47-17.07-2.71-33.67-6.99-50.1c-3.09-11.85-6.74-23.51-11.72-34.72
		c-2.99-6.73-6.9-12.89-11.44-18.67c-0.3-0.39-0.59-0.78-0.87-1.19c-0.04-0.06,0.01-0.19,0.05-0.61c0.69,0.67,1.26,1.18,1.79,1.74
		c8.36,8.98,13.95,19.62,18.47,30.9c6.07,15.15,10.71,30.71,13.17,46.86c1.3,8.54,2.14,17.16,1.61,25.78
		c-0.38,6.18-1.5,12.33-2.48,18.46c-0.25,1.56-1.23,2.99-1.83,4.5c-0.15,0.38-0.28,0.81-0.25,1.21c0.74,7.82,1.62,15.62,2.23,23.44
		c0.6,7.76,0.2,15.5-1.74,23.08c-0.44,1.72-1.34,3.32-2.11,4.94c-0.41,0.87-1.24,0.91-1.68,0.18c-0.7-1.16-1.27-2.44-1.68-3.74
		c-0.46-1.47-0.68-3.01-1-4.53c-0.23,0.05-0.47,0.09-0.7,0.14c0.08,1.1,0.22,2.2,0.24,3.31c0.12,8.42-0.28,16.81-1.9,25.1
		c-0.25,1.26-0.78,2.51-1.37,3.66c-0.81,1.6-1.97,1.62-2.69,0.01c-0.55-1.21-0.71-2.6-1.05-3.91c-0.12-0.46-0.29-0.91-0.44-1.37
		c-0.18-0.03-0.37-0.07-0.55-0.1c-1.01,3.47-2.14,6.91-3.01,10.41c-0.55,2.22-0.62,4.55-1.12,6.78c-0.25,1.11-0.99,2.1-1.48,3.16
		c-0.17,0.36-0.41,0.77-0.37,1.13c0.87,6.65,1.78,13.3,2.71,19.94c0.05,0.33,0.23,0.74,0.49,0.94
		c12.26,9.38,23.42,19.98,34.07,31.12c1.58,1.65,3.12,3.34,4.68,5.01c0,0.33,0,0.66,0,0.98c-8.78-9.61-18.32-18.43-28.14-26.95
		c-3.49-3.03-6.99-6.05-10.84-9.38c0.37,2.67,0.67,4.95,1.01,7.22c0.4,2.64,0.46,5.42,1.35,7.89c1.4,3.86-0.37,6.84-2.13,9.74
		 M251.95,440.37c-15.29,10.09-31.05,19.36-48.6,25.06c-0.07-0.14-0.14-0.28-0.21-0.43c1.62-0.71,3.24-1.44,4.87-2.13
		c12.55-5.27,24.1-12.33,35.41-19.8c14.56-9.61,28.46-20.11,41.88-31.26"/>
	<path d="M225.26,284.83c-2.61-0.38-5.22-0.73-7.82-1.16c-1.94-0.31-3.85-0.76-5.79-1.07c-1.09-0.18-1.69,0.03-1.48,1.49
		c0.33,2.37,0.36,4.78,0.46,7.18c0.03,0.78-0.09,1.57-0.47,2.36c-0.27-2.06-0.53-4.13-0.81-6.19c-0.16-1.23-0.26-2.48-0.57-3.67
		c-0.12-0.48-0.7-1.19-1.11-1.21c-5.07-0.31-10.14-0.52-15.22-0.75c-0.21-0.01-0.42,0.06-0.67,0.1c0,1.06,0,2.07,0,3
		c-0.93-3.17-0.93-3.18-4.3-3.12c-1.47,0.03-2.95,0.03-4.42,0.12c-2.33,0.15-4.66,0.36-7.07,0.56c0,3.3,0,6.49,0,9.68
		c-0.07,0.01-0.13,0.02-0.2,0.03c-0.1-1.08-0.2-2.15-0.29-3.23c-0.13-1.63-0.32-3.26-0.36-4.9c-0.03-1.22-0.55-1.5-1.65-1.29
		c-2.62,0.51-5.25,1-7.88,1.47c-1.7,0.3-3.41,0.54-5.11,0.86c-0.73,0.14-1.45,0.39-2.19,0.6c0.31,2.56,0.6,4.98,0.88,7.39
		c-0.11,0.02-0.22,0.03-0.33,0.05c-0.42-2.34-0.83-4.68-1.25-7.04c-5.65,1.47-11.18,2.9-16.66,4.33c0,2.58,0,5.13,0,7.9
		c-0.29-2.65-0.55-5.08-0.82-7.53c-5.76,0.73-11.45,1.46-17.6,2.24c0.35,1.53,0.72,3.34,1.21,5.13c0.25,0.93,0.62,1.86,1.1,2.69
		c0.27,0.47,0.82,0.91,1.33,1.11c3.82,1.45,7.83,1.87,11.87,1.73c7.31-0.26,14.62-0.5,21.91-1.02c14.85-1.05,29.7-2.19,44.53-3.48
		c5.86-0.51,11.69-1.46,17.51-2.34c0.92-0.14,1.93-0.75,2.56-1.45c1.53-1.7,2.87-3.57,4.27-5.38c0.34-0.44,0.61-0.94,0.91-1.41
		c0.19,0.16,0.38,0.32,0.57,0.48c-0.31,0.67-0.53,1.4-0.95,1.99c-2.6,3.64-5.19,7.28-7.89,10.84c-7.58,9.99-17.55,17.09-28.39,23.09
		c-8.23,4.56-17.13,7.16-26.41,8.25c-5.01,0.59-10.11,0.77-15.16,0.63c-4.22-0.12-8.35-1.24-11.76-3.97c-0.78-0.62-1.2-1.7-1.75-2.6
		c-0.28-0.46-0.45-0.99-0.71-1.47c-3.6-6.67-7.2-13.35-10.85-19.99c-0.31-0.56-1.01-1.16-1.61-1.26c-2.49-0.42-4.03-2.02-4.19-4.57
		c-0.09-1.34-0.42-2.69-0.33-4.02c0.08-1.13,0.62-2.23,0.98-3.44c-3-1.73-6.1-3.51-9.19-5.29c0.02-0.16,0.05-0.32,0.07-0.48
		c0.53,0,1.09-0.1,1.6,0.01c7.97,1.75,15.91,1.23,23.78-0.57c9.73-2.22,19.42-4.66,29.15-6.86c8.1-1.84,16.28-3.25,24.64-3.02
		c6.7,0.18,13.21,1.59,19.66,3.27c3.8,0.99,7.58,2.07,11.34,3.19c1.08,0.32,2.07,0.95,3.1,1.43
		C225.4,284.45,225.33,284.64,225.26,284.83z M147.69,324.94c0.03,0.01,0.36,0.21,0.72,0.29c4.36,0.96,8.72,1.94,13.09,2.82
		c1.95,0.39,3.95,0.86,5.91,0.79c1.98-0.08,3.96-0.72,5.91-1.23c10.7-2.83,20.44-7.85,29.93-13.39c4.18-2.44,8.46-4.79,11.79-8.46
		c2.34-2.57,4.76-5.08,7.33-7.82c-0.51,0.04-0.72,0.02-0.92,0.07c-18.41,4.39-37.17,6.38-55.97,8.02c-4.61,0.4-9.25,0.51-13.88,0.73
		c-2.5,0.12-2.67,0.14-2.97,2.64c-0.41,3.34-0.69,6.71-0.92,10.07C147.59,321.16,147.69,322.88,147.69,324.94z M141.09,328.12
		c2.12,0.65,4.2,1.29,6.27,1.93c0.16-0.14,0.31-0.28,0.47-0.42c-0.33-0.94-0.4-2.31-1.06-2.73c-1.46-0.93-3.23-1.37-4.97-2.05
		C141.57,325.94,141.37,326.88,141.09,328.12z M148.45,330.15c4.22,0.37,8.22,0.39,12.53-0.36c-4.26-0.69-8.15-1.33-12.16-1.98
		C148.71,328.49,148.61,329.17,148.45,330.15z M136.99,322.43c1.18,1.65,0.58,4.58,3.58,4.95
		C140.87,323.45,141.55,324.72,136.99,322.43z"/>
	<path d="M232.39,380.67c-0.29,0.54-0.55,1.09-0.86,1.61c-8.02,13.62-20.14,21.96-34.77,27.1c-9.68,3.4-19.36,3.5-29.07,0.18
		c-0.4-0.14-0.82-0.25-1.44-0.44c0.62,3.29,1.22,6.44,1.81,9.59c0.25,1.34,0.68,2.68,0.73,4.03c0.22,5.78,3.61,9.95,6.98,14.14
		c8.67,10.75,17.35,21.5,26.02,32.25c0.33,0.41,0.65,0.83,0.83,1.36c-11.29-11.13-21.77-22.97-31.35-35.74
		c1,4.78,1.99,9.56,2.99,14.34c-0.11,0.03-0.21,0.05-0.32,0.08c-0.46-1.5-1-2.97-1.36-4.49c-2.78-11.68-5.52-23.36-8.32-35.04
		c-0.16-0.65-0.6-1.51-1.13-1.75c-9.89-4.36-17.92-10.98-24.33-19.64c-0.1-0.13-0.21-0.25-0.47-0.57c-2.22,1.27-4.47,2.45-6.62,3.81
		c-22.76,14.45-44.78,29.91-65.36,47.38c-8.56,7.27-16.35,15.29-23.55,23.9c-0.3,0.36-0.63,0.7-1.22,0.83
		c0.87-1.13,1.74-2.26,2.61-3.39c9.35-12.16,20.48-22.55,32.27-32.25c15.92-13.1,32.37-25.48,50.07-36.11
		c3.41-2.05,6.94-3.9,10.55-5.91c-1.24-2.2-2.61-4.46-3.84-6.8c-4.46-8.48-7.28-17.51-8.87-26.95c-0.69-4.07-1.39-8.14-2.17-12.2
		c-1.86-9.69-6.48-18.32-10.46-27.2c-1.08-2.41-2.33-4.75-3.5-7.13c0.13-0.07,0.25-0.14,0.38-0.2c1.73,3,3.52,5.97,5.18,9.01
		c5.39,9.88,9.6,20.2,11.68,31.33c0.97,5.19,1.66,10.49,3.2,15.52c4.2,13.71,11.23,25.69,22.85,34.54
		c7.93,6.04,16.89,9.45,26.82,10.39c7.87,0.75,15.3-1.13,22.59-3.72c8.88-3.17,17.08-7.58,23.88-14.23
		c2.06-2.02,3.88-4.29,5.82-6.44c0.45-0.49,0.91-0.97,1.37-1.46C232.14,380.49,232.27,380.58,232.39,380.67z"/>
	<path d="M92.04,143.72c1.6-6.2,1.26-12.82,3.61-18.39c-0.59,6.62-1.2,13.66-1.84,20.7c-0.12,1.36-0.48,2.71-0.52,4.06
		c-0.2,7.55-0.43,15.1-0.47,22.65c-0.03,4.69,0.26,9.38,0.41,14.08c0.07,2.35,0.15,4.69,0.19,7.04c0.02,1.06,0.33,1.79,1.41,2.29
		c1.95,0.9,3.81,2,5.88,2.71c-0.92-0.59-1.84-1.18-2.76-1.77c0.08-0.15,0.17-0.29,0.25-0.44c3.03,1.63,6.05,3.26,9.08,4.9
		c0.08-0.12,0.16-0.24,0.24-0.36c-1.71-1.24-3.42-2.47-5.12-3.71c0.07-0.11,0.13-0.23,0.2-0.34c2.39,1.29,4.79,2.59,7.18,3.88
		c0.03-0.05,0.07-0.09,0.1-0.14c-1.09-0.82-2.19-1.65-3.28-2.47c4.83,1.79,8.71,5.09,12.76,8.12c0.1-0.13,0.2-0.27,0.3-0.4
		c-2.45-2.25-4.9-4.5-7.7-7.06c0.67,0.27,1.01,0.32,1.24,0.51c3.49,2.95,6.95,5.94,10.46,8.86c0.91,0.76,2.04,1.26,2.98,2
		c0.41,0.33,0.59,0.95,0.88,1.44c-0.14,0.09-0.27,0.19-0.41,0.28c-2.6-1.22-5.17-2.51-7.82-3.64c-4.36-1.86-8.66-4.02-13.2-5.26
		c-2.69-0.74-5.03-1.93-7.5-3.02c-0.68-0.3-1.6,0-2.36-0.16c-0.98-0.21-1.92-0.63-3.11-1.03c0.15,6.2,0.77,12.15,2.24,18.03
		c-0.16,0.04-0.32,0.09-0.49,0.13c-0.46-1.23-1.05-2.43-1.35-3.7c-0.96-4.08-1.86-8.19-2.69-12.3c-0.22-1.11-0.58-1.76-1.75-2.19
		c-3.49-1.26-6.91-2.7-10.35-4.09c-0.36-0.14-0.66-0.43-0.86-0.96c1.73,0.21,3.46,0.41,5.18,0.62c0.02-0.09,0.04-0.18,0.07-0.26
		c-1.77-0.72-3.53-1.44-5.3-2.16c0.06-0.2,0.13-0.4,0.19-0.59c3.69,0.93,7.39,1.85,11.07,2.77c-0.44-0.37-0.92-0.78-1.41-1.2
		c0.03-0.06,0.06-0.12,0.1-0.18c0.6,0.19,1.2,0.38,2.23,0.7c-0.32-1.62-0.3-3.15-0.92-4.35c-3.59-6.87-7.33-13.65-11.05-20.54
		c-1.23,0.99-1.97-0.22-2.13-1.35c-0.24-1.74-0.23-3.57,0.04-5.3c0.63-4.14,1.47-8.24,2.22-12.37c-0.69-0.11-1.22-0.03-1.48-0.26
		c-3.76-3.4-6.48-4.12-11.86-3.22c0.46-0.43,0.86-0.93,1.37-1.27c2.74-1.8,8.96-1.23,11.26,0.97c1.29,1.23,1.58,2.45,1.57,3.81
		c-0.05,4.69-0.34,9.37-0.45,14.06c-0.02,0.91,0.16,1.95,0.62,2.72c2.8,4.75,5.7,9.45,8.57,14.16c0.19,0.31,0.39,0.6,0.48,0.73
		c0-3.23,0.03-6.53-0.01-9.82c-0.03-2.13-0.29-4.26-0.22-6.38c0.04-1.25,0.54-2.49,0.82-3.73c0.35-1.53,0.91-3.04,0.98-4.58
		c0.36-7.52,0.31-15.07,2.07-22.46c0.2-0.85,0.49-1.67,0.76-2.5c0.06-0.19,0.22-0.36,0.38-0.61c-0.46,4.17-0.9,8.24-1.35,12.3
		C91.77,143.68,91.91,143.7,92.04,143.72z"/>
	<path d="M197.32,167.32c-4,1.69-7.65,3.24-11.29,4.78c0.05,0.15,0.1,0.29,0.14,0.44c8.17-2.98,16.52-4.73,25.26-3.7
		c-4.43,0.82-8.86,1.64-13.3,2.46c0.01,0.21,0.03,0.42,0.04,0.63c1.06,0.06,2.13,0.23,3.19,0.17c5.5-0.32,10.89,0.32,16.19,1.79
		c0.65,0.18,1.25,0.53,2.31,0.99c-4.48-0.28-8.45-0.53-12.42-0.79c-0.04,0.18-0.09,0.36-0.13,0.54c1.29,0.4,2.56,0.89,3.88,1.18
		c4.68,1.04,9.38,1.97,14.05,3.03c0.96,0.22,1.83,0.81,2.9,1.3c-4.66-0.91-9.12-1.78-13.58-2.65c-0.05,0.21-0.11,0.42-0.16,0.64
		c0.66,0.19,1.31,0.45,1.99,0.56c5.34,0.85,10.43,2.35,14.85,5.61c0.32,0.24,0.6,0.54,0.55,0.5c-3.7-1.29-7.76-2.7-11.83-4.12
		c-0.11,0.23-0.22,0.47-0.34,0.7c2.52,1.73,4.94,3.65,7.6,5.15c3.28,1.85,6.75,3.36,9.39,6.17c0.35,0.38,0.67,0.79,0.81,0.95
		c-2.73-1.73-5.66-3.6-8.59-5.46c-0.06,0.11-0.12,0.21-0.18,0.32c2.03,2.56,4.07,5.12,6.1,7.68c-0.05,0.02-0.09,0.05-0.14,0.07
		c-1.83-1.68-3.63-3.39-5.49-5.03c-8.62-7.65-18.54-12.88-29.76-15.48c-5.37-1.24-10.77-0.58-16.01,1.02
		c-7.96,2.43-15.27,6.16-21.95,11.12c-1.14,0.84-2.24,1.73-3.36,2.59c0.02,0.19,0.04,0.38,0.05,0.57c-0.18-0.69-0.66-1.46-0.49-2.05
		c0.36-1.29,0.8-2.7,1.64-3.7c4.25-5.05,8.63-10,12.98-14.96c0.38-0.43,0.89-0.74,1.59-0.88c-2.33,3.13-4.67,6.25-7,9.38
		c0.05,0.04,0.11,0.08,0.16,0.12c3.82-3.19,7.65-6.38,11.47-9.57c0.14,0.14,0.27,0.29,0.41,0.43c-2.42,2.45-4.85,4.91-7.27,7.36
		c5.84-5,12.08-9.25,19.26-11.98c0.08,0.12,0.17,0.25,0.25,0.37c-2.95,2.2-5.9,4.4-8.85,6.6
		C187.07,170.27,191.74,168.08,197.32,167.32z"/>
	<path d="M123.48,356.22c-2.1-3.89-4.12-7.81-6.31-11.65c-6.2-10.85-12.37-21.73-18.77-32.46c-1.85-3.11-4.59-5.69-6.65-8.7
		c-6.79-9.95-12.35-20.5-14.44-32.52c-1.75-10.04-2.2-20.07,1.04-29.97c1.88-5.75,5.25-10.5,9.38-14.81
		c1.81-1.89,3.54-3.86,5.33-5.78c0.32-0.34,0.72-0.7,1.15-0.83c1.1-0.34,1.67,0.21,1.22,1.26c-0.47,1.09-1.08,2.15-1.83,3.08
		c-1.81,2.25-3.71,4.43-5.62,6.61c-5.53,6.3-8.07,13.75-8.5,22.02c-0.67,12.82,1.96,24.96,7.61,36.45
		c1.68,3.43,3.36,6.87,5.28,10.17c2.87,4.95,6.03,9.72,8.9,14.67c3.26,5.62,6.41,11.3,9.46,17.03c4.15,7.8,8.15,15.68,12.21,23.53
		c0.29,0.57,0.47,1.2,0.71,1.8C123.58,356.15,123.53,356.18,123.48,356.22z"/>
	<path d="M67.11,104.15c0.73-0.92,1.45-1.84,2.18-2.76c0.14,0.06,0.29,0.12,0.43,0.18c-0.2,0.59-0.34,1.22-0.62,1.77
		c-5.59,11.03-7.92,22.81-8.16,35.08c-0.04,1.79,0.18,3.6,0.5,5.36c0.15,0.8,0.86,1.49,1.3,2.24c0.16,0.26,0.32,0.54,0.4,0.83
		c0.05,0.19,0,0.44-0.07,0.64c-0.53,1.48-0.88,3.38-2.67,3.6c-1.55,0.18-2.23-1.5-2.66-2.73c-0.72-2.04-1.34-4.16-1.6-6.3
		c-0.73-5.88,0.41-11.58,1.77-17.3c1.37-5.78,2.35-11.65,3.42-17.49c0.69-3.75,1.24-7.53,1.85-11.3c0.16-0.99,0.54-1.96-0.88-2.52
		c-0.36-0.14-0.66-1.43-0.42-1.89c0.7-1.35,5.65-2.69,7.06-2.15c1.43,0.55,1.86,1.48,1.4,2.93c-1.03,3.28-2.02,6.57-3.03,9.86
		c-0.19,0.61-0.35,1.24-0.52,1.86C66.9,104.09,67,104.12,67.11,104.15z"/>
	<path d="M330.26,102.37c-2.37-6.5-7.84-10.03-13-13.72c-4.79-3.42-9.87-6.45-14.81-9.67c-0.91-0.6-1.95-1.13-2.62-1.94
		c-0.77-0.93-0.52-1.95,0.86-2.11c1.12-0.14,1.27-0.84,1.06-1.6c-0.42-1.51-0.76-3.11-1.57-4.42c-3.28-5.34-7.85-9.48-12.89-13.1
		c-13.39-9.61-27.65-17.62-43.63-21.99c-6.32-1.73-12.98-2.24-19.49-3.29c-1.22-0.2-2.46-0.27-3.67-0.63c2.24,0,4.48-0.11,6.72,0.02
		c7.59,0.46,15.1,1.48,22.36,3.85c15.76,5.15,30.35,12.54,43.25,23.03c3.87,3.15,7.17,6.88,9.46,11.39c0.93,1.84,1.6,3.75,1.25,5.82
		c-0.19,1.14,0.2,1.6,1.13,2.14c8.11,4.66,15.29,10.49,21.58,17.4C328.52,96.03,330.13,98.9,330.26,102.37z"/>
	<path d="M112.56,44.14c0.76-0.3,1.37-0.58,2-0.79c12.72-4.27,25.8-6.9,39.1-8.63c10.88-1.41,21.79-2.33,32.76-2.7
		c10.38-0.35,20.74-0.41,31.05,1.09c2.02,0.29,4.06,0.42,6.07,0.74c1.01,0.16,1.76,0.88,1.47,1.98c-0.26,1.01-0.3,2.59-2.02,2.16
		c-6.66-1.68-13.47-2.12-20.28-2.41c-5.89-0.25-11.79-0.25-17.69-0.21c-5.18,0.03-10.37,0.18-15.55,0.44
		c-18.57,0.95-36.96,3.14-54.9,8.3c-0.52,0.15-1.05,0.29-1.57,0.41C112.95,44.53,112.86,44.39,112.56,44.14z"/>
	<path d="M113.69,49.26c-0.43-0.6-0.83-1.16-1.31-1.83c1.57-0.85,2.82-0.12,3.99,0.42c0.97,0.45,1.84,1.17,2.67,1.86
		c0.84,0.69,0.24,2.74-0.97,3.06c-12.45,3.22-22.91,10.33-33.44,17.24c-8.93,5.86-17.19,12.55-24.3,20.58
		c-0.23,0.26-0.56,0.45-1.17,0.45c0.29-0.5,0.54-1.03,0.88-1.5c6.89-9.38,15.45-17.05,24.68-24.03
		c6.98-5.28,14.17-10.24,22.19-13.83C109.07,50.71,111.38,50.07,113.69,49.26z"/>
	<path d="M222.12,313.97c-1.73,3.09-3.97,5.81-6.57,8.21c-10.16,9.35-21.96,15.48-35.57,18.06c-8.46,1.6-16.98,2.36-25.56,1.83
		c-3.67-0.23-7.34-0.95-10.92-1.84c-4.35-1.09-7.51-3.91-9.45-7.97c-0.87-1.82-1.62-3.69-2.35-5.57c-0.23-0.61-0.22-1.31-0.32-1.96
		c0.18-0.09,0.36-0.18,0.54-0.26c0.33,0.45,0.72,0.86,0.98,1.35c1.41,2.64,2.5,5.5,4.24,7.89c2.68,3.68,6.85,4.97,11.18,5.38
		c14.9,1.4,29.56,0.34,43.64-5.16c8.32-3.25,16.21-7.34,23.14-13.07c2.52-2.09,4.97-4.27,7.45-6.41
		C222.4,314.28,222.26,314.12,222.12,313.97z"/>
	<path d="M149.27,126.65c6.24-7.58,13.79-13.57,22.11-18.58c12.52-7.54,25.82-13.23,40.15-16.31c8.44-1.82,16.97-2.32,25.54-0.94
		c0.27,0.04,0.61,0.01,0.79,0.17c0.39,0.34,0.69,0.78,1.02,1.17c-0.45,0.26-0.9,0.75-1.35,0.74c-2.45-0.06-4.9-0.36-7.35-0.37
		c-10.32-0.07-20.25,2.12-30,5.31c-13.13,4.3-25.7,9.83-37.07,17.75c-4.55,3.17-8.69,6.95-13.01,10.45
		C149.83,126.25,149.54,126.45,149.27,126.65z"/>
	<path d="M271.39,220.61c-3.43-4.06-7.37-7.47-12.2-9.73c-8.24-3.86-16.92-6-26-5.64c-7.39,0.3-14.08,2.82-19.55,8.07
		c-0.42,0.41-1.17,0.48-1.77,0.71c0.02-0.69-0.2-1.52,0.11-2.04c2.16-3.66,5.65-5.69,9.44-7.25c9.31-3.85,18.68-3.22,28.04-0.19
		c6.24,2.02,12.13,4.74,16.92,9.34c2.01,1.93,3.7,4.19,5.53,6.3C271.72,220.32,271.55,220.46,271.39,220.61z"/>
	<path d="M91.81,124.01c1.82-1,3.55-2.28,5.49-2.96c7.82-2.72,15.66-5.39,23.57-7.82c5.88-1.8,11.89-3.19,17.84-4.76
		c0.26-0.07,0.57-0.22,0.79-0.14c0.74,0.25,2.01,0.49,2.08,0.9c0.17,1-0.3,2-1.56,2.31c-3.86,0.96-7.7,1.98-11.56,2.94
		c-9.73,2.41-19.49,4.74-29.2,7.21c-1.99,0.51-3.85,1.5-5.77,2.26c-0.47,0.19-0.95,0.37-1.43,0.55
		C91.97,124.35,91.89,124.18,91.81,124.01z"/>
	<path d="M149.84,264.08c-3.51,0.65-7,1.56-10.54,1.88c-6.52,0.59-12.99-0.03-19.19-2.23c-4.83-1.71-8.59-4.63-9.42-10.09
		c-0.4-2.64,0.46-5.08,2-7.24c0.27-0.38,0.72-0.71,1.16-0.86c0.34-0.11,0.79,0.1,1.19,0.16c-0.07,0.39-0.02,0.88-0.24,1.16
		c-3.02,3.95-2.38,8.45,1.74,11.16c3.99,2.62,8.66,3.46,13.16,4.78c6.24,1.84,12.5,1.35,18.79,0.64c0.42-0.05,0.85-0.01,1.28-0.01
		C149.8,263.66,149.82,263.87,149.84,264.08z"/>
	<path d="M308.06,297.48c2.04-11.62,2.99-23.32,3.19-35.1c0.21-11.73-0.28-23.42-1.25-35.1c1.7,7.82,1.59,15.81,2.09,23.77
		c2.73-4.49,2.53-9.47,2.39-14.39c-0.14-5.01-1.38-9.8-4-14.13c1.14-0.95,1.89-0.45,2.55,0.26c2.27,2.43,3.53,5.43,4.1,8.61
		c1.1,6.2,0.56,12.3-2.07,18.09c-0.59,1.3-1.72,2.35-2.49,3.58c-0.34,0.54-0.57,1.26-0.58,1.9c-0.12,10.59-0.42,21.17-1.99,31.66
		C309.47,290.26,308.72,293.86,308.06,297.48z"/>
	<path d="M233.72,101.62c5.54-0.88,11.07-1.76,16.6-2.67c0.45-0.07,0.83-0.47,1.28-0.63c0.58-0.21,1.19-0.44,1.79-0.46
		c0.94-0.04,1.89,0.08,2.42,0.11c-4.42,2.54-5.85,7.51-7.69,12.08c-1,2.5-1.23,5.32-1.75,7.72c-1.43-2.63-0.47-7.43,3.82-17.76
		c-2.07,0.4-4.01,0.78-5.94,1.15c-3.69,0.71-7.38,1.46-11.08,2.11c-0.78,0.14-1.62-0.14-2.44-0.17c-0.3-0.01-0.62,0.13-0.9,0.26
		c-0.68,0.31-1.34,0.65-2.01,0.97c-0.12-0.12-0.25-0.24-0.37-0.36c0.3-0.47,0.5-1.07,0.91-1.41c2.6-2.16,5.24-4.27,7.88-6.38
		c1.41-1.12,2.82-2.24,4.31-3.25c0.54-0.36,1.31-0.38,1.98-0.56c-0.15,0.64-0.08,1.52-0.48,1.89c-2.22,2.07-4.55,4.04-6.86,6.01
		c-0.45,0.38-1.01,0.62-1.52,0.93C233.68,101.35,233.7,101.49,233.72,101.62z"/>
	<path d="M240.45,286.57c-3.82-6.13-8.76-11.31-13.97-16.23c-9.45-8.91-19.6-16.9-31.08-23.09c-2.26-1.22-4.52-2.44-6.77-3.67
		c-0.4-0.22-0.77-0.51-1.16-0.76c0.07-0.19,0.14-0.38,0.2-0.58c0.9,0.26,1.84,0.41,2.69,0.78c8.07,3.49,15.54,7.97,22.45,13.4
		c9.61,7.56,18.57,15.78,25.69,25.81c2.1,2.96,3.83,6.19,5.74,9.3c-0.13,0.08-0.27,0.17-0.4,0.25c-1.15-1.76-2.3-3.51-3.46-5.27
		C240.4,286.52,240.45,286.57,240.45,286.57z"/>
	<path d="M111.17,242.65c5.96-4,9.64-9.72,12.97-16.5c-8.56-0.71-16.69-1.39-23.83-1.98c3.65,0,8.29-0.15,12.93,0.05
		c3.42,0.15,6.82,0.77,10.23,1.09c0.43,0.04,1.15-0.38,1.32-0.77c1.32-3.01,2.49-6.06,2.27-9.45c-0.03-0.48,0.49-0.99,0.75-1.49
		c0.58,0.37,1.62,0.69,1.66,1.11c0.19,1.82,0.49,3.77,0.03,5.49c-2.35,8.83-7.09,16.12-14.73,21.32c-0.99,0.67-2.19,1.05-3.29,1.56
		C111.37,242.94,111.27,242.8,111.17,242.65z"/>
	<path d="M111.14,222.27c-1.04-0.22-2.37-0.32-3.55-0.8c-2.84-1.15-3.25-3.95-0.87-5.84c3.6-2.86,7.69-3.62,12.1-2.35
		c2.28,0.66,2.84,1.9,2.04,4.09c-1.06,2.89-3.43,4.1-6.2,4.67C113.6,222.25,112.49,222.19,111.14,222.27z M107.96,218.3
		c3.68,0.95,6.79,0.51,9.69-1.29c0.51-0.32,1.21-1.02,1.14-1.42c-0.09-0.52-0.87-0.92-1.51-1.51c-0.36,1.53-0.64,2.94-2.28,1.33
		c-0.09-0.09-0.31-0.06-0.48-0.06C111.98,215.31,110.04,216.53,107.96,218.3z"/>
	<path d="M194.99,212.06c-1.83-0.52-3.57-1.05-4.34-2.91c-0.31-0.74-0.45-1.74-0.21-2.48c0.74-2.24,4.21-4.08,6.56-3.66
		c2.06,0.37,2.66,1.88,1.48,3.63c-0.29-0.58-0.49-1.58-0.92-1.69c-0.76-0.2-1.66,0.12-2.49,0.28c-0.31,0.06-0.66,0.23-0.85,0.46
		c-0.58,0.71-1.09,1.47-1.63,2.21c0.98,0.33,2.09,1.13,2.91,0.9c1.79-0.49,3.58-1.31,5.11-2.36c1.67-1.14,1.46-2.04-0.35-2.97
		c-0.47-0.24-0.93-0.49-1.32-0.93c1.41,0.08,3.15-0.03,3.78,1.35c0.45,0.99,0.32,2.75-0.3,3.62c-1.16,1.62-2.87,2.84-4,3.9
		c3.69-0.57,8.03-1.23,12.36-1.9c0.02,0.11,0.03,0.21,0.05,0.32c-10.54,1.99-21.07,3.98-31.61,5.97c-0.02-0.09-0.04-0.18-0.06-0.26
		C184.44,214.36,189.72,213.21,194.99,212.06z"/>
	<path d="M142.24,106.75c2.17,2.15,3.03,4.58,3.37,7.07c0.46,3.32,0.46,6.7,0.74,10.04c0.04,0.5,0.37,1.1,0.75,1.43
		c0.88,0.76,0.2,1.25-0.2,1.76c-0.46,0.58-1.1,1.03-1.51,1.64c-0.83,1.23-1.58,1.4-2.3,0.14c-0.58-1.03-1.04-2.32-1-3.48
		c0.13-3.97,0.63-7.92,0.75-11.89C142.9,111.38,142.48,109.28,142.24,106.75z"/>
	<path d="M263.46,108.22c-1.63,1.52-1.04,3.48-1.11,5.24c-0.33,9.39,0.82,18.61,3.14,27.7c-3.69-9.34-5.45-19.03-5.08-29.29
		c-3.91,3.02-7.69,5.95-11.57,8.95C250.04,118.17,260.61,108.97,263.46,108.22z"/>
	<path d="M150.48,259.87c0.97-2.73,2.76-4.94,4.89-6.76c3.26-2.8,6.66-5.46,10.18-7.93c1.37-0.97,3.19-1.35,4.85-1.82
		c0.51-0.14,1.19,0.33,1.79,0.52c-0.38,0.64-0.61,1.52-1.17,1.87c-4.98,3.14-10.08,6.09-15,9.31
		C154,256.4,152.32,258.26,150.48,259.87z"/>
	<path d="M264.24,321.87c5.66-20.34,6.45-41.58,5.36-62.49C272.93,275.03,268.98,313.96,264.24,321.87z"/>
	<path d="M175.82,240.18c-3.1-2.43-5.91-5.14-9.18-7.05c-3.29-1.91-7.04-3.01-10.61-4.63c1.66,0.27,3.34,0.47,4.98,0.83
		c4.9,1.05,9.28,3.17,12.95,6.62C175.16,237.08,176.28,238.3,175.82,240.18z"/>
	<path d="M331.36,249.5c-4.45,0.45-7.93,3.11-11.79,4.92c-0.98,0.46-2.31,1.81-3.16-0.08c-0.73-1.63,0.91-2.05,1.87-2.51
		c3.54-1.71,7.18-3.2,11.23-3.14c0.62,0.01,1.24,0.24,1.86,0.37C331.37,249.21,331.36,249.36,331.36,249.5z"/>
	<path d="M276.29,130.56c-1.02,1.84-2.08,3.66-3.04,5.53c-1.14,2.22-2.16,4.51-3.33,6.72c-0.25,0.47-0.89,0.72-1.35,1.07
		c-0.13-0.69-0.58-1.55-0.33-2.03c1.32-2.49,2.75-4.94,4.29-7.3c1-1.53,2.25-2.89,3.39-4.33
		C276.05,130.33,276.17,130.44,276.29,130.56z"/>
	<path d="M240.45,286.57c0,0-0.05-0.06-0.05-0.06c1.01,5.39,1.52,10.81,0.72,16.27c-0.33,2.25-0.97,4.45-1.79,6.6
		c0.39-2.01,0.9-4.01,1.15-6.05c0.63-5.19,0.13-10.35-0.63-15.49C239.8,287.5,238.78,286.26,240.45,286.57z"/>
	<path d="M114.05,279.29c1.52-4.67,3.07-9.44,4.63-14.22C119.84,266.39,116.42,276.7,114.05,279.29z"/>
	<path d="M318.24,98.35c3.57-0.18,6.49,0.67,9.26,2.13c0.34,0.18,0.42,0.84,0.73,1.52C324.77,100.74,321.74,99.63,318.24,98.35z"/>
	<path d="M192.27,286.6c0,3.49,0,6.99,0,9.29c-0.13-2.29-0.33-5.77-0.53-9.25C191.92,286.63,192.09,286.62,192.27,286.6z"/>
	<path class="st0" d="M147.69,324.94c0-2.07-0.1-3.79,0.02-5.49c0.24-3.36,0.52-6.72,0.92-10.07c0.3-2.5,0.47-2.52,2.97-2.64
		c4.63-0.22,9.27-0.33,13.88-0.73c18.8-1.63,37.56-3.63,55.97-8.02c0.2-0.05,0.41-0.03,0.92-0.07c-2.57,2.74-4.99,5.25-7.33,7.82
		c-3.33,3.66-7.61,6.01-11.79,8.46c-9.48,5.54-19.23,10.56-29.93,13.39c-1.95,0.52-3.93,1.16-5.91,1.23
		c-1.96,0.08-3.96-0.39-5.91-0.79c-4.37-0.88-8.73-1.86-13.09-2.82C148.06,325.15,147.72,324.95,147.69,324.94z"/>
	<path class="st0" d="M141.09,328.12c0.27-1.24,0.48-2.18,0.72-3.27c1.74,0.68,3.5,1.13,4.97,2.05c0.66,0.42,0.73,1.79,1.06,2.73
		c-0.16,0.14-0.31,0.28-0.47,0.42C145.29,329.41,143.22,328.78,141.09,328.12z"/>
	<path class="st0" d="M148.45,330.15c0.15-0.97,0.26-1.66,0.37-2.34c4.01,0.65,7.9,1.29,12.16,1.98
		C156.67,330.54,152.67,330.52,148.45,330.15z"/>
	<path class="st0" d="M136.99,322.43c4.56,2.3,3.88,1.02,3.58,4.95C137.56,327.01,138.16,324.07,136.99,322.43z"/>
	<path class="st0" d="M107.96,218.3c2.08-1.77,4.02-2.99,6.56-2.96c0.16,0,0.39-0.03,0.48,0.06c1.64,1.61,1.92,0.2,2.28-1.33
		c0.64,0.59,1.42,0.99,1.51,1.51c0.07,0.4-0.63,1.11-1.14,1.42C114.75,218.81,111.64,219.25,107.96,218.3z"/>
</g>
</svg>
